REM DIRINDEX 1\2,1\4,1\5,1\6,1\7,1\3\8,1\3\9,1\3\10
REM DIRNAME cjc113,folder01,folder02,folder03,folder04,folder05,folder06,folder07,folder08,folder09
TITLE ""
FILE "DB4500_5th_5C_06.mp3" MP3
  TRACK 01 AUDIO
    TITLE "8:cjc113_3597"
    INDEX 01 00:00:00
  TRACK 02 AUDIO
    TITLE "0:"
    INDEX 01 00:01:26
  TRACK 03 AUDIO
    TITLE "9:cjc113_3598"
    INDEX 01 00:01:32
  TRACK 04 AUDIO
    TITLE "0:"
    INDEX 01 00:02:36
  TRACK 05 AUDIO
    TITLE "10:cjc113_3599"
    INDEX 01 00:02:45
  TRACK 06 AUDIO
    TITLE "0:"
    INDEX 01 00:06:22
  TRACK 07 AUDIO
    TITLE "8:cjc113_3600"
    INDEX 01 00:06:55
  TRACK 08 AUDIO
    TITLE "0:"
    INDEX 01 00:07:74
  TRACK 09 AUDIO
    TITLE "9:cjc113_3601"
    INDEX 01 00:08:05
  TRACK 10 AUDIO
    TITLE "0:"
    INDEX 01 00:09:20
  TRACK 11 AUDIO
    TITLE "10:cjc113_3602"
    INDEX 01 00:09:28
  TRACK 12 AUDIO
    TITLE "0:"
    INDEX 01 00:11:56
  TRACK 13 AUDIO
    TITLE "8:cjc113_3603"
    INDEX 01 00:12:11
  TRACK 14 AUDIO
    TITLE "0:"
    INDEX 01 00:13:24
  TRACK 15 AUDIO
    TITLE "9:cjc113_3604"
    INDEX 01 00:13:35
  TRACK 16 AUDIO
    TITLE "0:"
    INDEX 01 00:14:47
  TRACK 17 AUDIO
    TITLE "10:cjc113_3605"
    INDEX 01 00:14:56
  TRACK 18 AUDIO
    TITLE "0:"
    INDEX 01 00:18:19
  TRACK 19 AUDIO
    TITLE "8:cjc113_3606"
    INDEX 01 00:18:48
  TRACK 20 AUDIO
    TITLE "0:"
    INDEX 01 00:19:69
  TRACK 21 AUDIO
    TITLE "9:cjc113_3607"
    INDEX 01 00:20:00
  TRACK 22 AUDIO
    TITLE "0:"
    INDEX 01 00:22:05
  TRACK 23 AUDIO
    TITLE "10:cjc113_3608"
    INDEX 01 00:22:11
  TRACK 24 AUDIO
    TITLE "0:"
    INDEX 01 00:25:31
  TRACK 25 AUDIO
    TITLE "8:cjc113_3609"
    INDEX 01 00:25:64
  TRACK 26 AUDIO
    TITLE "0:"
    INDEX 01 00:26:71
  TRACK 27 AUDIO
    TITLE "9:cjc113_3610"
    INDEX 01 00:27:04
  TRACK 28 AUDIO
    TITLE "0:"
    INDEX 01 00:28:45
  TRACK 29 AUDIO
    TITLE "10:cjc113_3611"
    INDEX 01 00:28:53
  TRACK 30 AUDIO
    TITLE "0:"
    INDEX 01 00:32:58
  TRACK 31 AUDIO
    TITLE "8:cjc113_3612"
    INDEX 01 00:33:15
  TRACK 32 AUDIO
    TITLE "0:"
    INDEX 01 00:34:30
  TRACK 33 AUDIO
    TITLE "9:cjc113_3613"
    INDEX 01 00:34:43
  TRACK 34 AUDIO
    TITLE "0:"
    INDEX 01 00:36:48
  TRACK 35 AUDIO
    TITLE "10:cjc113_3614"
    INDEX 01 00:36:54
  TRACK 36 AUDIO
    TITLE "0:"
    INDEX 01 00:41:12
  TRACK 37 AUDIO
    TITLE "8:cjc113_3615"
    INDEX 01 00:41:55
  TRACK 38 AUDIO
    TITLE "0:"
    INDEX 01 00:43:11
  TRACK 39 AUDIO
    TITLE "9:cjc113_3616"
    INDEX 01 00:43:27
  TRACK 40 AUDIO
    TITLE "0:"
    INDEX 01 00:44:42
  TRACK 41 AUDIO
    TITLE "10:cjc113_3617"
    INDEX 01 00:44:63
  TRACK 42 AUDIO
    TITLE "0:"
    INDEX 01 00:48:34
  TRACK 43 AUDIO
    TITLE "8:cjc113_3618"
    INDEX 01 00:49:02
  TRACK 44 AUDIO
    TITLE "0:"
    INDEX 01 00:50:29
  TRACK 45 AUDIO
    TITLE "9:cjc113_3619"
    INDEX 01 00:50:46
  TRACK 46 AUDIO
    TITLE "0:"
    INDEX 01 00:52:67
  TRACK 47 AUDIO
    TITLE "10:cjc113_3620"
    INDEX 01 00:53:02
  TRACK 48 AUDIO
    TITLE "0:"
    INDEX 01 00:56:35
  TRACK 49 AUDIO
    TITLE "8:cjc113_3621"
    INDEX 01 00:56:72
  TRACK 50 AUDIO
    TITLE "0:"
    INDEX 01 00:58:24
  TRACK 51 AUDIO
    TITLE "9:cjc113_3622"
    INDEX 01 00:58:36
  TRACK 52 AUDIO
    TITLE "0:"
    INDEX 01 00:59:71
  TRACK 53 AUDIO
    TITLE "10:cjc113_3623"
    INDEX 01 01:00:12
  TRACK 54 AUDIO
    TITLE "0:"
    INDEX 01 01:03:69
  TRACK 55 AUDIO
    TITLE "8:cjc113_3624"
    INDEX 01 01:04:33
  TRACK 56 AUDIO
    TITLE "0:"
    INDEX 01 01:05:56
  TRACK 57 AUDIO
    TITLE "9:cjc113_3625"
    INDEX 01 01:05:69
  TRACK 58 AUDIO
    TITLE "0:"
    INDEX 01 01:07:27
  TRACK 59 AUDIO
    TITLE "10:cjc113_3626"
    INDEX 01 01:07:43
  TRACK 60 AUDIO
    TITLE "0:"
    INDEX 01 01:11:72
  TRACK 61 AUDIO
    TITLE "8:cjc113_3627"
    INDEX 01 01:12:36
  TRACK 62 AUDIO
    TITLE "0:"
    INDEX 01 01:13:53
  TRACK 63 AUDIO
    TITLE "9:cjc113_3628"
    INDEX 01 01:13:69
  TRACK 64 AUDIO
    TITLE "0:"
    INDEX 01 01:16:14
  TRACK 65 AUDIO
    TITLE "10:cjc113_3629"
    INDEX 01 01:16:30
  TRACK 66 AUDIO
    TITLE "0:"
    INDEX 01 01:19:03
  TRACK 67 AUDIO
    TITLE "8:cjc113_3630"
    INDEX 01 01:19:44
  TRACK 68 AUDIO
    TITLE "0:"
    INDEX 01 01:20:73
  TRACK 69 AUDIO
    TITLE "9:cjc113_3631"
    INDEX 01 01:21:12
  TRACK 70 AUDIO
    TITLE "0:"
    INDEX 01 01:22:54
  TRACK 71 AUDIO
    TITLE "10:cjc113_3632"
    INDEX 01 01:22:72
  TRACK 72 AUDIO
    TITLE "0:"
    INDEX 01 01:25:72
